<?xml version="1.0" encoding="UTF-8" standalone="no"?>
<svg xmlns:xlink="http://www.w3.org/1999/xlink" height="7.6px" width="24.1px" xmlns="http://www.w3.org/2000/svg">
  <g transform="matrix(1.0, 0.0, 0.0, 1.0, -1.0, -5.3)">
    <g transform="matrix(1.0, 0.0, 0.0, 1.0, 0.0, 0.0)">
      <use fill="#ffffff" height="7.6" transform="matrix(0.2344, 0.0, 0.0, 0.2344, 0.0, 12.05)" width="24.1" xlink:href="#font_Verdana_m0"/>
    </g>
    <g transform="matrix(1.0, 0.0, 0.0, 1.0, 0.0, 0.0)">
      <use fill="#ffffff" height="7.6" transform="matrix(0.1523, 0.0, 0.0, 0.1523, 12.7, 12.9)" width="24.1" xlink:href="#font_Verdana_20"/>
    </g>
  </g>
  <defs>
    <g id="font_Verdana_m0">
      <path d="M27.3 -27.6 Q29.4 -26.35 30.6 -23.95 33.3 -26.25 35.85 -27.55 38.4 -28.85 40.85 -28.85 45.4 -28.85 47.75 -26.1 50.1 -23.4 50.1 -18.25 L50.1 0.0 41.1 0.0 41.1 -14.0 41.0 -17.5 Q40.9 -18.95 40.45 -19.85 40.05 -20.75 39.1 -21.15 L36.5 -21.55 34.3 -21.15 Q33.25 -20.8 31.7 -19.9 L31.7 0.0 22.65 0.0 22.65 -14.0 22.55 -17.5 Q22.45 -18.95 22.0 -19.85 21.55 -20.75 20.65 -21.15 L18.1 -21.55 Q16.75 -21.55 15.5 -21.0 L13.25 -19.9 13.25 0.0 4.25 0.0 4.25 -28.05 13.25 -28.05 13.25 -24.95 Q15.6 -26.8 17.7 -27.8 19.85 -28.85 22.4 -28.85 25.15 -28.85 27.3 -27.6" fill-rule="evenodd" stroke="none"/>
    </g>
    <g id="font_Verdana_20">
      <path d="M32.15 -26.7 Q32.15 -23.15 30.4 -20.0 28.6 -16.8 25.0 -13.45 L20.4 -9.55 17.15 -7.1 33.85 -7.1 33.85 0.0 4.65 0.0 4.65 -6.15 Q8.0 -8.55 11.35 -11.3 L16.75 -16.0 Q19.75 -18.9 21.05 -21.1 22.3 -23.25 22.3 -25.4 22.3 -27.95 20.7 -29.3 19.05 -30.7 15.95 -30.7 13.65 -30.7 11.15 -29.75 8.6 -28.8 6.4 -27.35 L5.6 -27.35 5.6 -35.6 10.85 -37.15 Q14.3 -37.95 17.8 -37.95 24.8 -37.95 28.45 -35.0 32.15 -32.05 32.15 -26.7" fill-rule="evenodd" stroke="none"/>
    </g>
  </defs>
</svg>
