<?xml version="1.0" encoding="UTF-8" standalone="no"?>
<svg xmlns:xlink="http://www.w3.org/1999/xlink" height="9.85px" width="33.45px" xmlns="http://www.w3.org/2000/svg">
  <g transform="matrix(1.0, 0.0, 0.0, 1.0, -61.05, -3.05)">
    <g transform="matrix(1.0, 0.0, 0.0, 1.0, 59.9, 0.0)">
      <use fill="#0066ff" height="9.85" transform="matrix(0.2344, 0.0, 0.0, 0.2344, 0.05, 12.05)" width="33.45" xlink:href="#font_Verdana_r0"/>
    </g>
    <g transform="matrix(1.0, 0.0, 0.0, 1.0, 59.9, 0.0)">
      <use fill="#0066ff" height="9.85" transform="matrix(0.1523, 0.0, 0.0, 0.1523, 5.15, 12.9)" width="33.45" xlink:href="#font_Verdana_10"/>
    </g>
    <g transform="matrix(1.0, 0.0, 0.0, 1.0, 59.9, 0.0)">
      <use fill="#0066ff" height="9.85" transform="matrix(0.2344, 0.0, 0.0, 0.2344, 14.3, 12.05)" width="33.45" xlink:href="#font_Verdana__1"/>
    </g>
  </g>
  <defs>
    <g id="font_Verdana_r0">
      <path d="M22.05 -27.6 L22.05 -22.8 21.8 -22.8 19.8 -23.15 17.45 -23.25 Q15.25 -23.25 13.25 -22.3 11.2 -21.35 9.35 -19.8 L9.35 0.0 4.65 0.0 4.65 -27.9 9.35 -27.9 9.35 -23.8 Q12.15 -26.05 14.3 -26.95 16.4 -27.9 18.65 -27.9 L20.4 -27.85 22.05 -27.6" fill-rule="evenodd" stroke="none"/>
    </g>
    <g id="font_Verdana_10">
      <path d="M6.95 -28.75 L6.95 -32.15 10.35 -32.4 Q12.15 -32.65 13.05 -33.15 L14.9 -34.75 Q15.55 -35.7 15.65 -37.35 L19.5 -37.35 19.5 -3.8 27.1 -3.8 27.1 0.0 6.95 0.0 6.95 -3.8 14.7 -3.8 14.7 -28.75 6.95 -28.75" fill-rule="evenodd" stroke="none"/>
    </g>
    <g id="font_Verdana__1">
      <path d="M35.8 -9.05 L6.15 -9.05 6.15 -13.05 35.8 -13.05 35.8 -9.05 M35.8 -19.55 L6.15 -19.55 6.15 -23.55 35.8 -23.55 35.8 -19.55" fill-rule="evenodd" stroke="none"/>
    </g>
  </defs>
</svg>
