<?xml version="1.0" encoding="UTF-8" standalone="no"?>
<svg xmlns:xlink="http://www.w3.org/1999/xlink" height="9.85px" width="33.45px" xmlns="http://www.w3.org/2000/svg">
  <g transform="matrix(1.0, 0.0, 0.0, 1.0, -61.0, -3.05)">
    <g transform="matrix(1.0, 0.0, 0.0, 1.0, 59.9, 0.0)">
      <use fill="#ff0000" height="9.85" transform="matrix(0.2344, 0.0, 0.0, 0.2344, 0.0, 12.05)" width="33.45" xlink:href="#font_Verdana_r0"/>
    </g>
    <g transform="matrix(1.0, 0.0, 0.0, 1.0, 59.9, 0.0)">
      <use fill="#ff0000" height="9.85" transform="matrix(0.1523, 0.0, 0.0, 0.1523, 5.1, 12.9)" width="33.45" xlink:href="#font_Verdana_20"/>
    </g>
    <g transform="matrix(1.0, 0.0, 0.0, 1.0, 59.9, 0.0)">
      <use fill="#ff0000" height="9.85" transform="matrix(0.2344, 0.0, 0.0, 0.2344, 14.25, 12.05)" width="33.45" xlink:href="#font_Verdana__1"/>
    </g>
  </g>
  <defs>
    <g id="font_Verdana_r0">
      <path d="M22.05 -27.6 L22.05 -22.8 21.8 -22.8 19.8 -23.15 17.45 -23.25 Q15.25 -23.25 13.25 -22.3 11.2 -21.35 9.35 -19.8 L9.35 0.0 4.65 0.0 4.65 -27.9 9.35 -27.9 9.35 -23.8 Q12.15 -26.05 14.3 -26.95 16.4 -27.9 18.65 -27.9 L20.4 -27.85 22.05 -27.6" fill-rule="evenodd" stroke="none"/>
    </g>
    <g id="font_Verdana_20">
      <path d="M27.65 -27.75 Q27.65 -25.6 27.15 -23.75 26.6 -21.95 25.55 -20.3 L23.25 -17.25 20.05 -13.9 14.55 -8.8 9.2 -4.25 29.25 -4.25 29.25 0.0 4.05 0.0 4.05 -5.2 9.3 -9.7 14.2 -14.2 Q19.0 -18.85 20.8 -21.55 22.55 -24.3 22.55 -27.5 22.55 -30.4 20.65 -32.0 18.75 -33.65 15.3 -33.65 13.05 -33.65 10.4 -32.85 7.75 -32.05 5.2 -30.4 L4.95 -30.4 4.95 -35.65 Q6.75 -36.55 9.7 -37.25 L15.45 -38.0 Q21.15 -38.0 24.4 -35.2 27.65 -32.45 27.65 -27.75" fill-rule="evenodd" stroke="none"/>
    </g>
    <g id="font_Verdana__1">
      <path d="M35.8 -9.05 L6.15 -9.05 6.15 -13.05 35.8 -13.05 35.8 -9.05 M35.8 -19.55 L6.15 -19.55 6.15 -23.55 35.8 -23.55 35.8 -19.55" fill-rule="evenodd" stroke="none"/>
    </g>
  </defs>
</svg>
