<?xml version="1.0" encoding="UTF-8" standalone="no"?>
<svg xmlns:xlink="http://www.w3.org/1999/xlink" height="31.35px" width="31.6px" xmlns="http://www.w3.org/2000/svg">
  <g transform="matrix(1.0, 0.0, 0.0, 1.0, 15.8, 15.65)">
    <path d="M-7.5 0.0 Q-7.5 3.1 -5.35 5.3 L-4.2 6.25 Q-2.35 7.5 0.0 7.5 L1.6 7.35 Q3.7 6.9 5.4 5.15 6.8 3.75 7.25 1.95 L7.5 0.0 Q7.5 -3.15 5.3 -5.35 4.0 -6.65 1.45 -7.4 L-1.45 -7.4 Q-3.65 -7.0 -5.35 -5.35 -7.5 -3.15 -7.5 0.0 L-7.5 0.4 Q-7.35 3.25 -5.35 5.3 -3.15 7.5 0.0 7.5 L2.65 7.05 5.3 5.3 6.7 3.45 Q7.5 1.9 7.5 0.0 7.5 -3.15 5.3 -5.35 3.65 -7.0 1.45 -7.4 L-1.45 -7.4 Q-3.05 -7.1 -5.35 -5.35 -7.5 -3.15 -7.5 0.0 L-7.5 0.4 Q-7.4 1.9 -6.8 3.25 -6.05 4.3 -5.35 5.3 -3.15 7.5 0.0 7.5 1.55 7.5 2.9 6.95 4.2 6.4 5.3 5.3 7.5 3.1 7.5 0.0 7.5 -3.15 5.3 -5.35 L5.2 -5.45 Q3.6 -7.0 1.45 -7.4 L-2.25 -7.2 Q-3.95 -6.7 -5.35 -5.35 -7.5 -3.15 -7.5 0.0 L-7.5 0.1 Q-7.5 2.1 -6.5 3.8 L-5.35 5.3 Q-3.15 7.5 0.0 7.5 2.55 7.5 4.55 5.95 L5.3 5.3 6.25 4.15 Q7.5 2.35 7.5 0.0 L7.45 -1.15 7.1 -2.6 Q6.55 -4.1 5.3 -5.35 3.65 -7.0 1.45 -7.4 L0.0 -7.5 -2.05 -7.25 Q-2.95 -7.05 -5.35 -5.35 -6.8 -3.9 -7.25 -2.0 -7.4 -1.0 -7.5 0.0 -7.5 3.1 -5.35 5.3 L-3.85 6.45 Q-2.45 7.3 -0.7 7.45 L0.0 7.5 Q3.1 7.5 5.3 5.3 L6.55 3.7 Q7.5 2.05 7.5 0.0 7.5 -3.15 5.3 -5.35 L4.05 -6.4 Q2.85 -7.15 1.45 -7.4 L-1.45 -7.4 Q-3.15 -7.1 -5.35 -5.35 -7.5 -3.15 -7.5 0.0 L-7.5 0.2 Q-7.45 3.15 -5.35 5.3 -3.15 7.5 0.0 7.5 L0.7 7.45 Q2.25 7.35 3.55 6.65 L5.3 5.3 Q7.5 3.1 7.5 0.0 7.5 -2.2 6.45 -3.9 L6.2 -4.3 5.3 -5.35 Q3.65 -7.0 1.45 -7.4 L-1.45 -7.4 Q-3.65 -7.0 -5.35 -5.35 -7.5 -3.15 -7.5 0.0 -7.5 1.65 -6.9 3.0 L-5.35 5.3 Q-3.15 7.5 0.0 7.5 L2.65 7.05 Q3.95 6.55 5.0 5.6 L5.3 5.3 Q7.5 3.1 7.5 0.0 7.5 -2.5 6.1 -4.4 L4.4 -6.15 Q3.05 -7.1 1.45 -7.4 L-1.65 -7.4 Q-3.7 -6.95 -5.35 -5.35 -7.5 -3.15 -7.5 0.0 -7.5 3.1 -5.35 5.3 L-4.3 6.2 Q-3.3 6.9 -2.1 7.25 L0.0 7.5 Q3.1 7.5 5.3 5.3 7.05 3.55 7.4 1.2 L7.45 -1.15 Q7.1 -3.55 5.3 -5.35 4.15 -6.15 3.05 -6.95 L1.45 -7.4 0.0 -7.5 -1.45 -7.4 Q-3.65 -7.0 -5.35 -5.35 L-7.0 -2.8 Q-7.5 -1.5 -7.5 0.0 L-7.5 0.1 Q-7.5 3.1 -5.35 5.3 -3.15 7.5 0.5 7.5 3.3 7.3 5.3 5.3 L6.7 3.4 Q7.5 1.85 7.5 0.0 7.5 -3.15 5.3 -5.35 3.65 -7.0 1.45 -7.4 L-1.45 -7.4 Q-3.65 -7.0 -5.35 -5.35 -7.5 -3.15 -7.5 0.0 L-7.5 0.0 Q-7.5 1.2 -7.15 2.25 -6.65 3.95 -5.35 5.3 -3.15 7.5 0.0 7.5 L1.85 7.3 Q3.8 6.8 5.3 5.3 6.8 3.8 7.3 1.9 L7.5 0.0 Q7.5 -1.6 6.95 -2.95 6.4 -4.25 4.15 -6.3 2.9 -7.15 1.45 -7.4 L-1.45 -7.4 Q-3.65 -7.0 -5.35 -5.35 -7.5 -3.15 -7.5 0.0 L-7.5 0.4 Q-7.35 3.25 -5.35 5.3 -3.15 7.5 0.0 7.5 L2.65 7.05 5.3 5.3 6.7 3.45 Q7.5 1.9 7.5 0.0 7.5 -3.15 5.3 -5.35 3.65 -7.0 1.45 -7.4 L-1.45 -7.4 Q-3.05 -7.1 -5.35 -5.35 -7.5 -3.15 -7.5 0.0 L-7.5 0.0 -7.45 0.65 Q-7.25 3.35 -5.35 5.3 L-5.25 5.4 Q-3.1 7.5 0.0 7.5 L0.6 7.5 Q3.3 7.3 5.3 5.3 L5.4 5.2 Q6.7 3.85 7.2 2.15 7.35 1.05 7.5 0.0 L7.45 -0.7 Q7.25 -3.4 5.3 -5.35 L4.8 -5.8 Q3.35 -7.05 1.45 -7.4 L0.0 -7.5 -1.45 -7.4 Q-3.65 -7.0 -5.35 -5.35 L-6.45 -3.95 Q-7.5 -2.2 -7.5 0.0" fill="url(#gradient0)" fill-rule="evenodd" stroke="none">
      <animate attributeName="d" dur="2s" repeatCount="indefinite" values="M-7.5 0.0 Q-7.5 3.1 -5.35 5.3 L-4.2 6.25 Q-2.35 7.5 0.0 7.5 L1.6 7.35 Q3.7 6.9 5.4 5.15 6.8 3.75 7.25 1.95 L7.5 0.0 Q7.5 -3.15 5.3 -5.35 4.0 -6.65 1.45 -7.4 L-1.45 -7.4 Q-3.65 -7.0 -5.35 -5.35 -7.5 -3.15 -7.5 0.0 L-7.5 0.4 Q-7.35 3.25 -5.35 5.3 -3.15 7.5 0.0 7.5 L2.65 7.05 5.3 5.3 6.7 3.45 Q7.5 1.9 7.5 0.0 7.5 -3.15 5.3 -5.35 3.65 -7.0 1.45 -7.4 L-1.45 -7.4 Q-3.05 -7.1 -5.35 -5.35 -7.5 -3.15 -7.5 0.0 L-7.5 0.4 Q-7.4 1.9 -6.8 3.25 -6.05 4.3 -5.35 5.3 -3.15 7.5 0.0 7.5 1.55 7.5 2.9 6.95 4.2 6.4 5.3 5.3 7.5 3.1 7.5 0.0 7.5 -3.15 5.3 -5.35 L5.2 -5.45 Q3.6 -7.0 1.45 -7.4 L-2.25 -7.2 Q-3.95 -6.7 -5.35 -5.35 -7.5 -3.15 -7.5 0.0 L-7.5 0.1 Q-7.5 2.1 -6.5 3.8 L-5.35 5.3 Q-3.15 7.5 0.0 7.5 2.55 7.5 4.55 5.95 L5.3 5.3 6.25 4.15 Q7.5 2.35 7.5 0.0 L7.45 -1.15 7.1 -2.6 Q6.55 -4.1 5.3 -5.35 3.65 -7.0 1.45 -7.4 L0.0 -7.5 -2.05 -7.25 Q-2.95 -7.05 -5.35 -5.35 -6.8 -3.9 -7.25 -2.0 -7.4 -1.0 -7.5 0.0 -7.5 3.1 -5.35 5.3 L-3.85 6.45 Q-2.45 7.3 -0.7 7.45 L0.0 7.5 Q3.1 7.5 5.3 5.3 L6.55 3.7 Q7.5 2.05 7.5 0.0 7.5 -3.15 5.3 -5.35 L4.05 -6.4 Q2.85 -7.15 1.45 -7.4 L-1.45 -7.4 Q-3.15 -7.1 -5.35 -5.35 -7.5 -3.15 -7.5 0.0 L-7.5 0.2 Q-7.45 3.15 -5.35 5.3 -3.15 7.5 0.0 7.5 L0.7 7.45 Q2.25 7.35 3.55 6.65 L5.3 5.3 Q7.5 3.1 7.5 0.0 7.5 -2.2 6.45 -3.9 L6.2 -4.3 5.3 -5.35 Q3.65 -7.0 1.45 -7.4 L-1.45 -7.4 Q-3.65 -7.0 -5.35 -5.35 -7.5 -3.15 -7.5 0.0 -7.5 1.65 -6.9 3.0 L-5.35 5.3 Q-3.15 7.5 0.0 7.5 L2.65 7.05 Q3.95 6.55 5.0 5.6 L5.3 5.3 Q7.5 3.1 7.5 0.0 7.5 -2.5 6.1 -4.4 L4.4 -6.15 Q3.05 -7.1 1.45 -7.4 L-1.65 -7.4 Q-3.7 -6.95 -5.35 -5.35 -7.5 -3.15 -7.5 0.0 -7.5 3.1 -5.35 5.3 L-4.3 6.2 Q-3.3 6.9 -2.1 7.25 L0.0 7.5 Q3.1 7.5 5.3 5.3 7.05 3.55 7.4 1.2 L7.45 -1.15 Q7.1 -3.55 5.3 -5.35 4.15 -6.15 3.05 -6.95 L1.45 -7.4 0.0 -7.5 -1.45 -7.4 Q-3.65 -7.0 -5.35 -5.35 L-7.0 -2.8 Q-7.5 -1.5 -7.5 0.0 L-7.5 0.1 Q-7.5 3.1 -5.35 5.3 -3.15 7.5 0.5 7.5 3.3 7.3 5.3 5.3 L6.7 3.4 Q7.5 1.85 7.5 0.0 7.5 -3.15 5.3 -5.35 3.65 -7.0 1.45 -7.4 L-1.45 -7.4 Q-3.65 -7.0 -5.35 -5.35 -7.5 -3.15 -7.5 0.0 L-7.5 0.0 Q-7.5 1.2 -7.15 2.25 -6.65 3.95 -5.35 5.3 -3.15 7.5 0.0 7.5 L1.85 7.3 Q3.8 6.8 5.3 5.3 6.8 3.8 7.3 1.9 L7.5 0.0 Q7.5 -1.6 6.95 -2.95 6.4 -4.25 4.15 -6.3 2.9 -7.15 1.45 -7.4 L-1.45 -7.4 Q-3.65 -7.0 -5.35 -5.35 -7.5 -3.15 -7.5 0.0 L-7.5 0.4 Q-7.35 3.25 -5.35 5.3 -3.15 7.5 0.0 7.5 L2.65 7.05 5.3 5.3 6.7 3.45 Q7.5 1.9 7.5 0.0 7.5 -3.15 5.3 -5.35 3.65 -7.0 1.45 -7.4 L-1.45 -7.4 Q-3.05 -7.1 -5.35 -5.35 -7.5 -3.15 -7.5 0.0 L-7.5 0.0 -7.45 0.65 Q-7.25 3.35 -5.35 5.3 L-5.25 5.4 Q-3.1 7.5 0.0 7.5 L0.6 7.5 Q3.3 7.3 5.3 5.3 L5.4 5.2 Q6.7 3.85 7.2 2.15 7.35 1.05 7.5 0.0 L7.45 -0.7 Q7.25 -3.4 5.3 -5.35 L4.8 -5.8 Q3.35 -7.05 1.45 -7.4 L0.0 -7.5 -1.45 -7.4 Q-3.65 -7.0 -5.35 -5.35 L-6.45 -3.95 Q-7.5 -2.2 -7.5 0.0;M12.3 2.6 Q12.0 3.35 12.35 3.9 L12.6 4.1 Q13.15 4.6 13.7 4.4 L14.05 4.15 Q14.6 3.7 15.1 3.3 15.35 2.95 15.6 2.6 L15.6 2.5 Q16.1 1.55 15.4 1.05 14.95 0.9 14.55 0.75 L13.95 0.95 Q13.5 1.15 13.1 1.5 12.7 2.05 12.3 2.6 L7.5 -9.95 Q7.55 -9.55 7.6 -9.15 7.8 -8.7 8.4 -8.6 L8.85 -8.6 9.35 -8.75 9.6 -9.15 Q9.65 -9.3 9.7 -9.4 10.0 -10.1 9.6 -10.5 9.25 -10.7 8.9 -10.9 L8.45 -10.95 Q8.2 -10.85 8.0 -10.75 7.5 -10.5 7.5 -9.95 L6.1 14.2 Q6.3 14.55 6.5 14.85 6.85 15.1 7.25 15.2 7.9 15.3 8.55 15.35 8.85 15.25 9.15 15.2 9.55 14.9 9.9 14.65 10.4 13.85 10.2 13.35 10.0 12.85 9.15 12.6 L9.05 12.6 Q8.65 12.7 8.25 12.75 L7.3 12.85 Q6.9 12.95 6.55 13.05 6.05 13.35 6.1 14.2 L3.85 -0.25 Q3.3 0.4 3.85 1.15 L4.4 1.9 Q5.3 2.8 6.2 3.7 7.05 4.3 7.85 4.85 L8.35 5.15 8.95 5.45 Q10.2 6.05 10.7 5.0 L10.85 4.6 10.7 4.05 Q10.2 3.55 9.7 3.1 8.95 2.55 8.25 2.0 L7.75 1.6 7.05 1.0 Q6.6 0.5 6.2 0.05 5.6 -0.5 4.8 -0.75 4.25 -0.75 3.85 -0.25 2.05 11.95 2.9 12.25 L3.4 12.4 Q3.95 12.45 4.2 12.0 L4.2 12.0 Q4.55 11.15 4.9 10.35 L5.0 9.75 Q5.0 9.2 5.0 8.7 4.85 7.85 4.1 7.45 L3.65 7.25 Q3.35 7.35 3.1 7.4 L2.45 8.05 Q2.3 8.4 2.3 9.2 2.25 10.05 2.2 10.9 L0.7 -8.4 Q0.75 -7.6 1.15 -7.1 1.75 -6.75 2.3 -6.45 L2.4 -6.45 Q2.75 -6.55 3.05 -6.6 L3.5 -6.9 Q4.05 -7.45 3.8 -8.1 3.55 -8.45 3.3 -8.8 L3.3 -8.9 3.25 -9.3 Q2.8 -9.7 2.4 -10.05 L1.95 -10.15 Q1.3 -10.0 1.0 -9.65 0.65 -9.2 0.7 -8.4 -5.75 15.5 -5.4 15.7 L-4.95 15.65 Q-4.15 15.45 -3.5 14.95 L-3.1 14.6 Q-2.9 14.3 -2.7 14.05 L-2.7 14.05 Q-2.2 13.15 -2.65 12.65 -2.95 12.3 -3.6 12.1 L-4.05 12.25 Q-4.45 12.45 -4.85 12.65 L-5.55 13.1 Q-5.9 13.5 -6.25 13.85 -6.6 14.5 -6.15 15.3 -8.3 7.85 -7.45 8.45 L-7.0 8.7 Q-6.6 8.9 -6.2 8.7 L-5.6 8.4 Q-4.75 7.95 -3.95 7.5 -3.3 7.0 -2.7 6.5 L-2.25 5.85 Q-1.8 4.9 -2.35 4.4 -2.65 4.15 -3.2 4.0 L-3.6 4.2 -4.15 4.45 -4.65 4.75 Q-5.3 5.2 -5.9 5.6 L-6.75 6.2 Q-7.15 6.5 -7.55 6.8 L-10.0 -14.7 Q-10.15 -14.0 -9.9 -13.6 -9.65 -13.25 -9.05 -13.1 -8.45 -13.0 -8.1 -13.3 L-7.85 -13.7 Q-7.75 -13.9 -7.7 -14.1 -7.6 -14.65 -7.8 -15.0 -8.1 -15.25 -8.35 -15.45 L-8.95 -15.65 Q-9.2 -15.55 -9.45 -15.5 -9.75 -15.1 -10.0 -14.7 L-10.05 -9.8 Q-10.2 -9.45 -9.9 -9.15 -9.5 -8.7 -9.1 -8.25 -8.45 -7.65 -7.85 -7.1 L-7.45 -6.8 Q-6.9 -6.35 -6.4 -6.4 -5.95 -6.45 -5.55 -7.0 L-5.25 -7.55 Q-5.15 -8.0 -5.55 -8.45 -6.1 -9.0 -6.6 -9.55 -6.75 -9.7 -6.9 -9.8 L-7.75 -10.35 Q-8.3 -10.65 -8.85 -10.9 -9.8 -10.85 -10.05 -9.9 L-15.5 5.8 Q-15.45 6.2 -15.4 6.6 -15.0 6.9 -14.6 7.15 L-14.15 7.15 -13.65 7.0 -13.4 6.6 Q-13.35 6.45 -13.3 6.35 -13.0 5.65 -13.4 5.25 -13.75 5.05 -14.1 4.85 L-14.55 4.8 Q-14.8 4.9 -15.0 5.0 -15.5 5.25 -15.5 5.8 L-15.75 -3.7 -15.5 -3.5 Q-14.2 -2.8 -12.75 -2.4 L-12.75 -2.4 Q-10.9 -1.9 -9.25 -0.85 L-9.05 -0.75 Q-7.75 0.1 -6.45 0.95 L-6.25 1.05 Q-5.3 1.65 -4.65 0.7 -4.15 -0.05 -4.7 -0.65 L-4.95 -0.95 Q-6.15 -1.8 -7.35 -2.65 L-7.7 -2.85 Q-8.65 -3.35 -9.55 -3.85 L-10.35 -4.25 -11.15 -4.55 Q-12.4 -4.95 -13.6 -5.3 L-14.6 -5.5 Q-16.1 -5.25 -15.75 -3.8"/>
    </path>
    <path d="M-7.5 0.0 Q-7.5 -2.2 -6.45 -3.95 L-5.35 -5.35 Q-3.65 -7.0 -1.45 -7.4 L0.0 -7.5 1.45 -7.4 Q3.35 -7.05 4.8 -5.8 L5.3 -5.35 Q7.25 -3.4 7.45 -0.7 L7.5 0.0 Q7.35 1.05 7.2 2.15 6.7 3.85 5.4 5.2 L5.3 5.3 Q3.3 7.3 0.6 7.5 L0.0 7.5 Q-3.1 7.5 -5.25 5.4 L-5.35 5.3 Q-7.25 3.35 -7.45 0.65 L-7.5 0.0 -7.5 0.0 Q-7.5 -3.15 -5.35 -5.35 -3.05 -7.1 -1.45 -7.4 L1.45 -7.4 Q3.65 -7.0 5.3 -5.35 7.5 -3.15 7.5 0.0 7.5 1.9 6.7 3.45 L5.3 5.3 2.65 7.05 0.0 7.5 Q-3.15 7.5 -5.35 5.3 -7.35 3.25 -7.5 0.4 L-7.5 0.0 Q-7.5 -3.15 -5.35 -5.35 -3.65 -7.0 -1.45 -7.4 L1.45 -7.4 Q2.9 -7.15 4.15 -6.3 6.4 -4.25 6.95 -2.95 7.5 -1.6 7.5 0.0 L7.3 1.9 Q6.8 3.8 5.3 5.3 3.8 6.8 1.85 7.3 L0.0 7.5 Q-3.15 7.5 -5.35 5.3 -6.65 3.95 -7.15 2.25 -7.5 1.2 -7.5 0.0 L-7.5 0.0 Q-7.5 -3.15 -5.35 -5.35 -3.65 -7.0 -1.45 -7.4 L1.45 -7.4 Q3.65 -7.0 5.3 -5.35 7.5 -3.15 7.5 0.0 7.5 1.85 6.7 3.4 L5.3 5.3 Q3.3 7.3 0.5 7.5 -3.15 7.5 -5.35 5.3 -7.5 3.1 -7.5 0.1 L-7.5 0.0 Q-7.5 -1.5 -7.0 -2.8 L-5.35 -5.35 Q-3.65 -7.0 -1.45 -7.4 L0.0 -7.5 1.45 -7.4 3.05 -6.95 Q4.15 -6.15 5.3 -5.35 7.1 -3.55 7.45 -1.15 L7.4 1.2 Q7.05 3.55 5.3 5.3 3.1 7.5 0.0 7.5 L-2.1 7.25 Q-3.3 6.9 -4.3 6.2 L-5.35 5.3 Q-7.5 3.1 -7.5 0.0 -7.5 -3.15 -5.35 -5.35 -3.7 -6.95 -1.65 -7.4 L1.45 -7.4 Q3.05 -7.1 4.4 -6.15 L6.1 -4.4 Q7.5 -2.5 7.5 0.0 7.5 3.1 5.3 5.3 L5.0 5.6 Q3.95 6.55 2.65 7.05 L0.0 7.5 Q-3.15 7.5 -5.35 5.3 L-6.9 3.0 Q-7.5 1.65 -7.5 0.0 -7.5 -3.15 -5.35 -5.35 -3.65 -7.0 -1.45 -7.4 L1.45 -7.4 Q3.65 -7.0 5.3 -5.35 L6.2 -4.3 6.45 -3.9 Q7.5 -2.2 7.5 0.0 7.5 3.1 5.3 5.3 L3.55 6.65 Q2.25 7.35 0.7 7.45 L0.0 7.5 Q-3.15 7.5 -5.35 5.3 -7.45 3.15 -7.5 0.2 L-7.5 0.0 Q-7.5 -3.15 -5.35 -5.35 -3.15 -7.1 -1.45 -7.4 L1.45 -7.4 Q2.85 -7.15 4.05 -6.4 L5.3 -5.35 Q7.5 -3.15 7.5 0.0 7.5 2.05 6.55 3.7 L5.3 5.3 Q3.1 7.5 0.0 7.5 L-0.7 7.45 Q-2.45 7.3 -3.85 6.45 L-5.35 5.3 Q-7.5 3.1 -7.5 0.0 -7.4 -1.0 -7.25 -2.0 -6.8 -3.9 -5.35 -5.35 -2.95 -7.05 -2.05 -7.25 L0.0 -7.5 1.45 -7.4 Q3.65 -7.0 5.3 -5.35 6.55 -4.1 7.1 -2.6 L7.45 -1.15 7.5 0.0 Q7.5 2.35 6.25 4.15 L5.3 5.3 4.55 5.95 Q2.55 7.5 0.0 7.5 -3.15 7.5 -5.35 5.3 L-6.5 3.8 Q-7.5 2.1 -7.5 0.1 L-7.5 0.0 Q-7.5 -3.15 -5.35 -5.35 -3.95 -6.7 -2.25 -7.2 L1.45 -7.4 Q3.6 -7.0 5.2 -5.45 L5.3 -5.35 Q7.5 -3.15 7.5 0.0 7.5 3.1 5.3 5.3 4.2 6.4 2.9 6.95 1.55 7.5 0.0 7.5 -3.15 7.5 -5.35 5.3 -6.05 4.3 -6.8 3.25 -7.4 1.9 -7.5 0.4 L-7.5 0.0 Q-7.5 -3.15 -5.35 -5.35 -3.05 -7.1 -1.45 -7.4 L1.45 -7.4 Q3.65 -7.0 5.3 -5.35 7.5 -3.15 7.5 0.0 7.5 1.9 6.7 3.45 L5.3 5.3 2.65 7.05 0.0 7.5 Q-3.15 7.5 -5.35 5.3 -7.35 3.25 -7.5 0.4 L-7.5 0.0 Q-7.5 -3.15 -5.35 -5.35 -3.65 -7.0 -1.45 -7.4 L1.45 -7.4 Q4.0 -6.65 5.3 -5.35 7.5 -3.15 7.5 0.0 L7.25 1.95 Q6.8 3.75 5.4 5.15 3.7 6.9 1.6 7.35 L0.0 7.5 Q-2.35 7.5 -4.2 6.25 L-5.35 5.3 Q-7.5 3.1 -7.5 0.0" fill="none" stroke="#000000" stroke-linecap="round" stroke-linejoin="round" stroke-opacity="0.0" stroke-width="1.0">
      <animate attributeName="stroke" dur="2s" repeatCount="indefinite" values="#000000;#000001"/>
      <animate attributeName="stroke-width" dur="2s" repeatCount="indefinite" values="0.0;0.0"/>
      <animate attributeName="fill-opacity" dur="2s" repeatCount="indefinite" values="0.0;0.0"/>
      <animate attributeName="d" dur="2s" repeatCount="indefinite" values="M-7.5 0.0 Q-7.5 -2.2 -6.45 -3.95 L-5.35 -5.35 Q-3.65 -7.0 -1.45 -7.4 L0.0 -7.5 1.45 -7.4 Q3.35 -7.05 4.8 -5.8 L5.3 -5.35 Q7.25 -3.4 7.45 -0.7 L7.5 0.0 Q7.35 1.05 7.2 2.15 6.7 3.85 5.4 5.2 L5.3 5.3 Q3.3 7.3 0.6 7.5 L0.0 7.5 Q-3.1 7.5 -5.25 5.4 L-5.35 5.3 Q-7.25 3.35 -7.45 0.65 L-7.5 0.0 -7.5 0.0 Q-7.5 -3.15 -5.35 -5.35 -3.05 -7.1 -1.45 -7.4 L1.45 -7.4 Q3.65 -7.0 5.3 -5.35 7.5 -3.15 7.5 0.0 7.5 1.9 6.7 3.45 L5.3 5.3 2.65 7.05 0.0 7.5 Q-3.15 7.5 -5.35 5.3 -7.35 3.25 -7.5 0.4 L-7.5 0.0 Q-7.5 -3.15 -5.35 -5.35 -3.65 -7.0 -1.45 -7.4 L1.45 -7.4 Q2.9 -7.15 4.15 -6.3 6.4 -4.25 6.95 -2.95 7.5 -1.6 7.5 0.0 L7.3 1.9 Q6.8 3.8 5.3 5.3 3.8 6.8 1.85 7.3 L0.0 7.5 Q-3.15 7.5 -5.35 5.3 -6.65 3.95 -7.15 2.25 -7.5 1.2 -7.5 0.0 L-7.5 0.0 Q-7.5 -3.15 -5.35 -5.35 -3.65 -7.0 -1.45 -7.4 L1.45 -7.4 Q3.65 -7.0 5.3 -5.35 7.5 -3.15 7.5 0.0 7.5 1.85 6.7 3.4 L5.3 5.3 Q3.3 7.3 0.5 7.5 -3.15 7.5 -5.35 5.3 -7.5 3.1 -7.5 0.1 L-7.5 0.0 Q-7.5 -1.5 -7.0 -2.8 L-5.35 -5.35 Q-3.65 -7.0 -1.45 -7.4 L0.0 -7.5 1.45 -7.4 3.05 -6.95 Q4.15 -6.15 5.3 -5.35 7.1 -3.55 7.45 -1.15 L7.4 1.2 Q7.05 3.55 5.3 5.3 3.1 7.5 0.0 7.5 L-2.1 7.25 Q-3.3 6.9 -4.3 6.2 L-5.35 5.3 Q-7.5 3.1 -7.5 0.0 -7.5 -3.15 -5.35 -5.35 -3.7 -6.95 -1.65 -7.4 L1.45 -7.4 Q3.05 -7.1 4.4 -6.15 L6.1 -4.4 Q7.5 -2.5 7.5 0.0 7.5 3.1 5.3 5.3 L5.0 5.6 Q3.95 6.55 2.65 7.05 L0.0 7.5 Q-3.15 7.5 -5.35 5.3 L-6.9 3.0 Q-7.5 1.65 -7.5 0.0 -7.5 -3.15 -5.35 -5.35 -3.65 -7.0 -1.45 -7.4 L1.45 -7.4 Q3.65 -7.0 5.3 -5.35 L6.2 -4.3 6.45 -3.9 Q7.5 -2.2 7.5 0.0 7.5 3.1 5.3 5.3 L3.55 6.65 Q2.25 7.35 0.7 7.45 L0.0 7.5 Q-3.15 7.5 -5.35 5.3 -7.45 3.15 -7.5 0.2 L-7.5 0.0 Q-7.5 -3.15 -5.35 -5.35 -3.15 -7.1 -1.45 -7.4 L1.45 -7.4 Q2.85 -7.15 4.05 -6.4 L5.3 -5.35 Q7.5 -3.15 7.5 0.0 7.5 2.05 6.55 3.7 L5.3 5.3 Q3.1 7.5 0.0 7.5 L-0.7 7.45 Q-2.45 7.3 -3.85 6.45 L-5.35 5.3 Q-7.5 3.1 -7.5 0.0 -7.4 -1.0 -7.25 -2.0 -6.8 -3.9 -5.35 -5.35 -2.95 -7.05 -2.05 -7.25 L0.0 -7.5 1.45 -7.4 Q3.65 -7.0 5.3 -5.35 6.55 -4.1 7.1 -2.6 L7.45 -1.15 7.5 0.0 Q7.5 2.35 6.25 4.15 L5.3 5.3 4.55 5.95 Q2.55 7.5 0.0 7.5 -3.15 7.5 -5.35 5.3 L-6.5 3.8 Q-7.5 2.1 -7.5 0.1 L-7.5 0.0 Q-7.5 -3.15 -5.35 -5.35 -3.95 -6.7 -2.25 -7.2 L1.45 -7.4 Q3.6 -7.0 5.2 -5.45 L5.3 -5.35 Q7.5 -3.15 7.5 0.0 7.5 3.1 5.3 5.3 4.2 6.4 2.9 6.95 1.55 7.5 0.0 7.5 -3.15 7.5 -5.35 5.3 -6.05 4.3 -6.8 3.25 -7.4 1.9 -7.5 0.4 L-7.5 0.0 Q-7.5 -3.15 -5.35 -5.35 -3.05 -7.1 -1.45 -7.4 L1.45 -7.4 Q3.65 -7.0 5.3 -5.35 7.5 -3.15 7.5 0.0 7.5 1.9 6.7 3.45 L5.3 5.3 2.65 7.05 0.0 7.5 Q-3.15 7.5 -5.35 5.3 -7.35 3.25 -7.5 0.4 L-7.5 0.0 Q-7.5 -3.15 -5.35 -5.35 -3.65 -7.0 -1.45 -7.4 L1.45 -7.4 Q4.0 -6.65 5.3 -5.35 7.5 -3.15 7.5 0.0 L7.25 1.95 Q6.8 3.75 5.4 5.15 3.7 6.9 1.6 7.35 L0.0 7.5 Q-2.35 7.5 -4.2 6.25 L-5.35 5.3 Q-7.5 3.1 -7.5 0.0;M-15.75 -3.8 Q-16.1 -5.25 -14.6 -5.5 L-13.6 -5.3 Q-12.4 -4.95 -11.15 -4.55 L-10.35 -4.25 -9.55 -3.85 Q-8.65 -3.35 -7.7 -2.85 L-7.35 -2.65 Q-6.15 -1.8 -4.95 -0.95 L-4.7 -0.65 Q-4.15 -0.05 -4.65 0.7 -5.3 1.65 -6.25 1.05 L-6.45 0.95 Q-7.75 0.1 -9.05 -0.75 L-9.25 -0.85 Q-10.9 -1.9 -12.75 -2.4 L-12.75 -2.4 Q-14.2 -2.8 -15.5 -3.5 L-15.75 -3.7 -15.75 -3.8 Q-15.5 5.25 -15.0 5.0 -14.8 4.9 -14.55 4.8 L-14.1 4.85 Q-13.75 5.05 -13.4 5.25 -13.0 5.65 -13.3 6.35 -13.35 6.45 -13.4 6.6 L-13.65 7.0 -14.15 7.15 -14.6 7.15 Q-15.0 6.9 -15.4 6.6 -15.45 6.2 -15.5 5.8 L-15.5 5.8 Q-9.8 -10.85 -8.85 -10.9 -8.3 -10.65 -7.75 -10.35 L-6.9 -9.8 Q-6.75 -9.7 -6.6 -9.55 -6.1 -9.0 -5.55 -8.45 -5.15 -8.0 -5.25 -7.55 L-5.55 -7.0 Q-5.95 -6.45 -6.4 -6.4 -6.9 -6.35 -7.45 -6.8 L-7.85 -7.1 Q-8.45 -7.65 -9.1 -8.25 -9.5 -8.7 -9.9 -9.15 -10.2 -9.45 -10.05 -9.8 L-10.05 -9.9 Q-9.75 -15.1 -9.45 -15.5 -9.2 -15.55 -8.95 -15.65 L-8.35 -15.45 Q-8.1 -15.25 -7.8 -15.0 -7.6 -14.65 -7.7 -14.1 -7.75 -13.9 -7.85 -13.7 L-8.1 -13.3 Q-8.45 -13.0 -9.05 -13.1 -9.65 -13.25 -9.9 -13.6 -10.15 -14.0 -10.0 -14.7 L-10.0 -14.7 Q-7.15 6.5 -6.75 6.2 L-5.9 5.6 Q-5.3 5.2 -4.65 4.75 L-4.15 4.45 -3.6 4.2 -3.2 4.0 Q-2.65 4.15 -2.35 4.4 -1.8 4.9 -2.25 5.85 L-2.7 6.5 Q-3.3 7.0 -3.95 7.5 -4.75 7.95 -5.6 8.4 L-6.2 8.7 Q-6.6 8.9 -7.0 8.7 L-7.45 8.45 Q-8.3 7.85 -7.55 6.8 -6.6 14.5 -6.25 13.85 -5.9 13.5 -5.55 13.1 L-4.85 12.65 Q-4.45 12.45 -4.05 12.25 L-3.6 12.1 Q-2.95 12.3 -2.65 12.65 -2.2 13.15 -2.7 14.05 L-2.7 14.05 Q-2.9 14.3 -3.1 14.6 L-3.5 14.95 Q-4.15 15.45 -4.95 15.65 L-5.4 15.7 Q-5.75 15.5 -6.15 15.3 0.65 -9.2 1.0 -9.65 1.3 -10.0 1.95 -10.15 L2.4 -10.05 Q2.8 -9.7 3.25 -9.3 L3.3 -8.9 3.3 -8.8 Q3.55 -8.45 3.8 -8.1 4.05 -7.45 3.5 -6.9 L3.05 -6.6 Q2.75 -6.55 2.4 -6.45 L2.3 -6.45 Q1.75 -6.75 1.15 -7.1 0.75 -7.6 0.7 -8.4 L0.7 -8.4 Q2.25 10.05 2.3 9.2 2.3 8.4 2.45 8.05 L3.1 7.4 Q3.35 7.35 3.65 7.25 L4.1 7.45 Q4.85 7.85 5.0 8.7 5.0 9.2 5.0 9.75 L4.9 10.35 Q4.55 11.15 4.2 12.0 L4.2 12.0 Q3.95 12.45 3.4 12.4 L2.9 12.25 Q2.05 11.95 2.2 10.9 4.25 -0.75 4.8 -0.75 5.6 -0.5 6.2 0.05 6.6 0.5 7.05 1.0 L7.75 1.6 8.25 2.0 Q8.95 2.55 9.7 3.1 10.2 3.55 10.7 4.05 L10.85 4.6 10.7 5.0 Q10.2 6.05 8.95 5.45 L8.35 5.15 7.85 4.85 Q7.05 4.3 6.2 3.7 5.3 2.8 4.4 1.9 L3.85 1.15 Q3.3 0.4 3.85 -0.25 L3.85 -0.25 Q6.05 13.35 6.55 13.05 6.9 12.95 7.3 12.85 L8.25 12.75 Q8.65 12.7 9.05 12.6 L9.15 12.6 Q10.0 12.85 10.2 13.35 10.4 13.85 9.9 14.65 9.55 14.9 9.15 15.2 8.85 15.25 8.55 15.35 7.9 15.3 7.25 15.2 6.85 15.1 6.5 14.85 6.3 14.55 6.1 14.2 L6.1 14.2 Q7.5 -10.5 8.0 -10.75 8.2 -10.85 8.45 -10.95 L8.9 -10.9 Q9.25 -10.7 9.6 -10.5 10.0 -10.1 9.7 -9.4 9.65 -9.3 9.6 -9.15 L9.35 -8.75 8.85 -8.6 8.4 -8.6 Q7.8 -8.7 7.6 -9.15 7.55 -9.55 7.5 -9.95 L7.5 -9.95 Q12.7 2.05 13.1 1.5 13.5 1.15 13.95 0.95 L14.55 0.75 Q14.95 0.9 15.4 1.05 16.1 1.55 15.6 2.5 L15.6 2.6 Q15.35 2.95 15.1 3.3 14.6 3.7 14.05 4.15 L13.7 4.4 Q13.15 4.6 12.6 4.1 L12.35 3.9 Q12.0 3.35 12.3 2.6"/>
    </path>
  </g>
  <defs>
    <radialGradient cx="0" cy="0" gradientTransform="matrix(0.0101, 0.0, 0.0, 0.0101, 0.0, -0.05)" gradientUnits="userSpaceOnUse" id="gradient0" r="819.2" spreadMethod="pad">
      <animateTransform additive="replace" attributeName="gradientTransform" dur="2s" from="1" repeatCount="indefinite" to="1" type="scale"/>
      <animateTransform additive="sum" attributeName="gradientTransform" dur="2s" from="0.0 -0.05" repeatCount="indefinite" to="0.0 -0.05" type="translate"/>
      <animateTransform additive="sum" attributeName="gradientTransform" dur="2s" from="0.0" repeatCount="indefinite" to="0.0" type="rotate"/>
      <animateTransform additive="sum" attributeName="gradientTransform" dur="2s" from="0.0101 0.0101" repeatCount="indefinite" to="0.0101 0.0101" type="scale"/>
      <animateTransform additive="sum" attributeName="gradientTransform" dur="2s" from="0.0" repeatCount="indefinite" to="0.0" type="skewX"/>
      <stop offset="0.0" stop-color="#ffffff">
        <animate attributeName="offset" dur="2s" repeatCount="indefinite" values="0.0;0.0"/>
        <animate attributeName="stop-color" dur="2s" repeatCount="indefinite" values="#ffffff;#7c4708"/>
        <animate attributeName="stop-opacity" dur="2s" repeatCount="indefinite" values="1.0;1.0"/>
      </stop>
      <stop offset="1.0" stop-color="#e4e466">
        <animate attributeName="offset" dur="2s" repeatCount="indefinite" values="1.0;1.0"/>
        <animate attributeName="stop-color" dur="2s" repeatCount="indefinite" values="#e4e466;#7c4708"/>
        <animate attributeName="stop-opacity" dur="2s" repeatCount="indefinite" values="1.0;1.0"/>
      </stop>
    </radialGradient>
  </defs>
</svg>
