<?xml version="1.0" encoding="UTF-8" standalone="no"?>
<svg xmlns:xlink="http://www.w3.org/1999/xlink" height="20.15px" width="20.9px" xmlns="http://www.w3.org/2000/svg">
  <g transform="matrix(1.0, 0.0, 0.0, 1.0, 10.45, 10.05)">
    <path d="M3.7 -2.55 L2.45 -2.5 2.0 -3.7 4.7 -5.7 3.7 -2.55 M-2.1 -3.85 L-2.5 -2.35 -3.5 -2.3 -4.6 -5.7 -2.1 -3.85 M-5.15 1.5 L-3.85 2.4 -4.1 3.2 -7.55 3.2 -5.15 1.5 M-0.85 6.05 L0.25 5.15 1.05 5.7 0.05 8.7 -0.85 6.05 M4.55 3.2 L4.15 2.15 5.1 1.4 7.6 3.2 4.55 3.2" fill="url(#gradient0)" fill-rule="evenodd" stroke="none"/>
    <path d="M2.0 -3.7 L2.45 -2.5 3.7 -2.55 10.45 -2.8 5.1 1.4 4.15 2.15 4.55 3.2 6.85 9.65 1.05 5.7 0.25 5.15 -0.85 6.05 -6.05 10.1 -4.1 3.2 -3.85 2.4 -5.15 1.5 -10.45 -2.05 -3.5 -2.3 -2.5 -2.35 -2.1 -3.85 -0.25 -10.05 2.0 -3.7" fill="url(#gradient1)" fill-rule="evenodd" stroke="none"/>
  </g>
  <defs>
    <radialGradient cx="0" cy="0" gradientTransform="matrix(0.0104, 0.0, 0.0, 0.0105, 0.05, 1.55)" gradientUnits="userSpaceOnUse" id="gradient0" r="819.2" spreadMethod="pad">
      <stop offset="0.0" stop-color="#ffffff"/>
      <stop offset="1.0" stop-color="#f5f5c2"/>
    </radialGradient>
    <radialGradient cx="0" cy="0" gradientTransform="matrix(0.0142, 0.0, 0.0, 0.0142, 0.05, 0.2)" gradientUnits="userSpaceOnUse" id="gradient1" r="819.2" spreadMethod="pad">
      <stop offset="0.0" stop-color="#ffffff"/>
      <stop offset="1.0" stop-color="#e4e466"/>
    </radialGradient>
  </defs>
</svg>
