<?xml version="1.0" encoding="UTF-8" standalone="no"?>
<svg xmlns:xlink="http://www.w3.org/1999/xlink" height="127.15px" width="130.95px" xmlns="http://www.w3.org/2000/svg">
  <g transform="matrix(1.0, 0.0, 0.0, 1.0, 60.95, 148.7)">
    <path d="M-15.1 -147.25 Q-6.25 -145.5 2.55 -145.5 7.5 -146.05 12.45 -147.25 22.25 -149.55 31.7 -146.3 34.45 -145.4 36.65 -143.75 38.75 -142.15 40.35 -139.8 41.65 -137.8 39.8 -136.55 49.25 -140.45 57.1 -134.6 60.4 -132.15 62.2 -128.35 64.65 -123.0 61.25 -119.15 59.95 -117.6 58.15 -117.7 66.15 -116.0 68.65 -108.2 70.05 -103.95 69.2 -99.65 68.3 -95.3 64.75 -93.1 61.45 -91.05 58.15 -92.8 L57.9 -93.25 57.8 -92.95 Q54.75 -85.85 48.5 -81.3 45.7 -79.25 42.4 -78.4 L31.85 -77.95 31.3 -78.95 30.9 -80.1 30.6 -81.25 30.4 -82.5 30.05 -82.25 Q19.4 -75.5 7.3 -73.45 -0.3 -72.1 -8.05 -72.6 -14.45 -73.45 -19.85 -76.7 -21.85 -78.0 -22.9 -80.2 M57.05 -117.9 L58.15 -117.7 M17.55 -68.15 Q13.8 -67.25 11.1 -64.25 L10.2 -63.2 Q16.0 -56.2 23.5 -61.2 24.2 -61.65 24.65 -62.5 L32.45 -63.3 Q33.2 -69.85 26.25 -69.85 22.6 -70.45 19.7 -68.3 L17.55 -68.15 M42.15 -50.7 L39.65 -51.95 39.1 -52.25 38.45 -52.65 36.6 -53.65 35.35 -54.0 34.4 -53.85 Q33.4 -53.45 32.5 -52.65 L32.4 -52.7 Q30.6 -53.8 28.7 -53.65 27.2 -53.55 26.4 -52.95 L26.0 -52.5 Q24.9 -51.1 25.5 -50.05 L26.0 -49.6 27.2 -48.95 Q25.55 -48.5 25.45 -46.45 L25.55 -45.5 25.85 -44.75 Q26.3 -43.8 27.05 -43.35 L28.45 -43.2 28.9 -43.35 29.95 -43.5 33.35 -43.6 33.95 -43.35 Q36.15 -41.85 38.7 -41.35 L40.0 -41.55 Q42.35 -42.6 43.35 -45.1 43.75 -45.95 43.15 -46.95 42.15 -48.5 42.15 -49.9 M33.2 -35.0 Q30.5 -34.3 28.05 -32.8 27.1 -32.2 28.05 -31.5 L28.5 -31.15 28.9 -30.7 Q28.9 -29.7 27.8 -28.85 L27.15 -28.3 Q26.15 -27.15 26.2 -25.7 L26.2 -25.55 Q26.3 -23.95 28.05 -23.85 L29.3 -23.8 Q30.6 -23.7 31.55 -22.5 L32.25 -22.1 Q34.35 -21.8 36.05 -22.7 L37.2 -23.25 Q38.75 -23.9 39.0 -25.3 L39.05 -25.55 Q39.25 -27.2 38.25 -28.35 L37.85 -28.85 37.1 -29.8 Q36.3 -30.85 34.35 -32.05 L33.95 -32.45 Q33.5 -33.15 33.5 -34.05" fill="none" stroke="#999999" stroke-linecap="round" stroke-linejoin="round" stroke-width="1.0"/>
    <path d="M-22.9 -80.2 Q-31.65 -73.65 -40.25 -79.5 -49.55 -85.75 -48.4 -96.45 L-48.8 -97.25 Q-57.75 -100.2 -60.1 -109.05 -61.4 -113.9 -58.05 -117.65 -55.3 -120.65 -51.75 -122.7 -49.3 -124.05 -46.9 -125.55 -47.5 -135.2 -39.2 -138.7 -36.1 -139.95 -32.8 -139.55 -31.75 -139.65 -31.15 -140.35 -29.35 -142.35 -27.3 -143.75 -22.0 -147.4 -15.1 -147.25 Z" fill="none" stroke="#999999" stroke-linecap="round" stroke-linejoin="round" stroke-width="1.0"/>
  </g>
</svg>
